<svg width="28" height="33" viewBox="0 0 28 33" fill="none" xmlns="http://www.w3.org/2000/svg">
<path fill-rule="evenodd" clip-rule="evenodd" d="M7.25816 0.333099C6.87474 0.333099 6.52582 0.682032 6.52582 1.06544V3.6288H4.6948C4.31138 3.6288 3.96246 3.97773 3.96246 4.36114V7.29083H1.3991C1.01338 7.28726 0.670552 7.64207 0.666759 8.02317V31.8264C0.66446 32.2113 1.00956 32.5626 1.3991 32.5587H20.4417C20.8312 32.5623 21.1763 32.2113 21.174 31.8264V28.8967H23.3714C23.7609 28.9003 24.1175 28.5493 24.1152 28.1644L24.1037 25.601H26.3011C26.6845 25.601 27.0334 25.2521 27.0334 24.8687V7.6571C27.0334 7.34699 26.9243 7.1457 26.7703 6.94745L21.8379 0.76777C21.7023 0.608373 21.3242 0.335303 20.808 0.333008L7.25816 0.333099ZM7.9905 1.79778H20.4414V5.45981L19.1254 3.99513C18.9652 3.80227 18.7933 3.62882 18.6104 3.62882H7.9905V1.79778ZM21.9062 3.26246L24.8359 6.9245H21.9062V3.26246ZM5.42708 5.09348H17.878V9.85419L16.047 7.65684C15.8375 7.39782 15.5757 7.29053 15.3146 7.29053H5.42714V5.09318L5.42708 5.09348ZM19.3428 6.55816L21.9062 10.2202H19.3428V6.55816ZM22.6385 8.38918H25.5682V24.1359H24.1035V10.9526C24.1035 10.5863 24.0463 10.2545 23.7372 9.85393L22.6385 8.38918ZM16.0468 9.85386L18.9765 13.8822H16.0468V9.85386ZM4.99208 10.9525L4.99233 10.9528C5.01507 10.9518 5.03806 10.9518 5.06105 10.9528H9.45542C9.85979 10.9528 10.1878 11.2808 10.1878 11.6854V16.0798C10.1878 16.4841 9.85978 16.8121 9.45542 16.8121H5.06105C4.65643 16.8121 4.32871 16.4841 4.32845 16.0798V11.6854C4.32691 11.3061 4.6148 10.9886 4.99232 10.9528L4.99208 10.9525ZM19.3427 11.6849H22.6384V27.4316H21.1737V14.2483C21.1737 14.0143 20.9285 13.6896 20.8074 13.516L19.3427 11.6849ZM4.99208 18.6427L4.99233 18.643C5.01507 18.642 5.03806 18.642 5.06105 18.643H17.1458H17.1455C17.3407 18.6402 17.5287 18.7161 17.6676 18.8537C17.8066 18.9914 17.8848 19.1794 17.8848 19.3754C17.8848 19.5715 17.8066 19.7593 17.6676 19.897C17.5287 20.0347 17.3407 20.1105 17.1455 20.1077H5.06079H5.06105C4.65847 20.1269 4.31694 19.8145 4.29778 19.4098C4.27887 19.0055 4.58975 18.6621 4.99232 18.643L4.99208 18.6427ZM4.99208 21.5724L4.99233 21.5727C5.01507 21.5717 5.03806 21.5717 5.06105 21.5727H17.1458H17.1455C17.3407 21.5699 17.5287 21.6457 17.6676 21.7834C17.8066 21.9211 17.8848 22.1091 17.8848 22.3051C17.8848 22.5012 17.8066 22.689 17.6676 22.8267C17.5287 22.9644 17.3407 23.0402 17.1455 23.0374H5.06079H5.06105C4.65847 23.0566 4.31694 22.7439 4.29778 22.3395C4.27887 21.9352 4.58975 21.5918 4.99232 21.5727L4.99208 21.5724ZM4.99208 24.5021L4.99233 24.5024C5.01507 24.5011 5.03806 24.5011 5.06105 24.5024H17.1458H17.1455C17.3407 24.4996 17.5287 24.5754 17.6676 24.7131C17.8066 24.8508 17.8848 25.0386 17.8848 25.2347C17.8848 25.4307 17.8066 25.6187 17.6676 25.7564C17.5287 25.894 17.3407 25.9699 17.1455 25.9671H5.06079H5.06105C4.65847 25.986 4.31694 25.6736 4.29778 25.2692C4.27887 24.8649 4.58975 24.5213 4.99232 24.5024L4.99208 24.5021ZM4.99208 27.4318H4.99233C5.01507 27.4308 5.03806 27.4308 5.06105 27.4318H17.1458H17.1455C17.3407 27.4293 17.5287 27.5051 17.6676 27.6428C17.8066 27.7805 17.8848 27.9683 17.8848 28.1644C17.8848 28.3604 17.8066 28.5484 17.6676 28.686C17.5287 28.8235 17.3407 28.8996 17.1455 28.8968H5.06079H5.06105C4.65847 28.9157 4.31694 28.6033 4.29778 28.1989C4.27887 27.7943 4.58975 27.4509 4.99232 27.4319L4.99208 27.4318Z" fill="#248CD8"/>
</svg>
