<svg width="32" height="23" viewBox="0 0 32 23" fill="none" xmlns="http://www.w3.org/2000/svg">
<path d="M31.5012 19.2984V22.0984H6.54862e-06V19.1352C-0.00155597 18.5094 0.276567 17.9156 0.758464 17.516C2.45824 16.1444 4.28658 14.9399 6.21761 13.9194C6.34238 14.2107 7.55201 16.9915 8.32321 18.1658V18.1656C8.33392 18.1877 8.35624 18.2018 8.3808 18.2018C8.40535 18.2018 8.42767 18.1877 8.43838 18.1656C8.59508 17.6953 9.19998 16.0631 10.1183 16.1752H10.1185C10.1473 16.1839 10.1781 16.1701 10.1908 16.1428C10.2035 16.1158 10.1946 16.0832 10.1696 16.0665C9.47521 15.5129 7.71515 14.0888 7.04641 13.2953V11.3785C6.74864 10.8723 6.54574 10.316 6.44795 9.73683C6.2176 9.71764 5.9167 9.39755 5.59035 8.24889C5.17116 6.77055 5.56468 6.47615 5.94548 6.47923C5.74392 5.61518 5.23188 2.61363 7.4656 1.25043C7.19707 1.02364 7.04149 0.690163 7.03993 0.338603C7.03993 0.338603 9.59999 0.626552 10.8192 0.373871C12.0384 0.120968 13.3792 1.08747 13.5872 2.01873C13.5872 2.01873 16.0863 2.01873 15.117 6.48279C15.5074 6.46671 15.933 6.73569 15.5009 8.25244C15.1808 9.4013 14.8609 9.72456 14.6433 9.74039V9.74016C14.546 10.3194 14.3431 10.8756 14.0448 11.3817V13.2826C13.3727 14.0762 11.616 15.5034 10.9185 16.0538C10.8935 16.0706 10.8843 16.1029 10.8973 16.1302C10.91 16.1574 10.9408 16.1712 10.9696 16.1625C11.8879 16.0505 12.4928 17.6793 12.6495 18.1529C12.6602 18.175 12.6827 18.1891 12.7071 18.1891C12.7316 18.1891 12.7542 18.175 12.7649 18.1529C13.5361 16.9786 14.7457 14.1978 14.8705 13.9065C16.17 14.5987 17.4259 15.3701 18.6303 16.217C19.0361 16.0818 19.4316 15.9184 19.8145 15.7273L19.8848 15.6858C20.0846 15.5565 20.2049 15.3349 20.2049 15.0969V13.9034C17.0464 13.9322 16.1154 12.5786 16.1154 12.5786C16.1154 12.5786 17.9203 12.5498 17.8083 7.77859C17.696 3.00739 19.8752 2.23619 20.6944 1.93859C23.0784 1.03299 24.2752 2.47297 24.2752 2.47297C27.04 2.21694 27.7953 5.23771 27.4752 8.67468C27.1551 12.1115 29.0241 12.649 29.0241 12.649C27.7281 13.9738 24.9922 13.8906 24.9922 13.8906V15.1227H24.9919C24.9919 15.3606 25.1122 15.5823 25.312 15.7115L25.3953 15.7627C26.3553 16.2651 28.3265 16.7868 28.3649 16.806C29.01 16.981 29.637 17.2178 30.2368 17.5131C30.94 17.8482 31.4185 18.5243 31.5009 19.2986L31.5012 19.2984Z" fill="#F29425"/>
</svg>
