<svg width="35" height="35" viewBox="0 0 35 35" fill="none" xmlns="http://www.w3.org/2000/svg">
<path d="M6.2714 20.778V18.9963C6.2714 18.5297 6.64894 18.148 7.11966 18.148H16.4514V20.7778C16.723 20.7228 17.0071 20.6929 17.2997 20.6929C17.5881 20.6929 17.8722 20.7225 18.1479 20.7778L18.1482 18.148H27.9041C28.3707 18.148 28.7524 18.5297 28.7524 18.9963V20.7778C29.024 20.7228 29.308 20.6929 29.6007 20.6929C29.8891 20.6929 30.1732 20.7225 30.4489 20.7778L30.4492 18.9963C30.4492 17.5924 29.3039 16.4511 27.904 16.4511L18.1481 16.4514V13.9062H16.4516V16.4514H7.11988C5.71595 16.4514 4.57471 17.5923 4.57471 18.9966V20.7781C4.84632 20.7231 5.13036 20.6932 5.42297 20.6932C5.71145 20.6932 5.99579 20.7228 6.27123 20.7781L6.2714 20.778Z" fill="#10A242"/>
<path d="M19.7218 28.4082C19.0344 28.8917 18.1989 29.176 17.2997 29.176C16.396 29.176 15.5605 28.8917 14.8735 28.4082C13.3507 28.7434 12.2097 30.1006 12.2097 31.7208V33.4173C12.2097 33.8839 12.5873 34.2656 13.058 34.2656H21.5414C22.008 34.2656 22.3896 33.8839 22.3896 33.4173V31.7208C22.3896 30.1006 21.2443 28.7434 19.7217 28.4082H19.7218Z" fill="#10A242"/>
<path d="M31.904 28.4896C31.238 28.9224 30.4492 29.1769 29.6007 29.1769C28.6633 29.1769 27.7979 28.8671 27.0937 28.3496C25.4057 28.5404 24.0867 29.9784 24.0867 31.7218V33.4183C24.0867 33.8849 24.4642 34.2666 24.9349 34.2666H33.4183C33.8849 34.2666 34.2666 33.8849 34.2666 33.4183V31.7218C34.2666 30.2119 33.2698 28.9266 31.904 28.4896V28.4896Z" fill="#10A242"/>
<path d="M7.8453 28.4082C7.15827 28.8917 6.32246 29.176 5.42322 29.176C4.51958 29.176 3.68404 28.8917 2.99704 28.4082C1.47419 28.7434 0.333252 30.1006 0.333252 31.7208V33.4173C0.333252 33.8839 0.710794 34.2656 1.18152 34.2656H9.66491C10.1315 34.2656 10.5132 33.8839 10.5132 33.4173V31.7208C10.5132 30.1006 9.36815 28.7434 7.84523 28.4082H7.8453Z" fill="#10A242"/>
<path d="M19.8447 24.9348C19.8447 26.3403 18.7053 27.4797 17.2996 27.4797C15.8938 27.4797 14.7544 26.3403 14.7544 24.9348C14.7544 23.5291 15.8938 22.3896 17.2996 22.3896C18.7053 22.3896 19.8447 23.5291 19.8447 24.9348Z" fill="#10A242"/>
<path d="M13.0578 12.2102H21.5412C22.0078 12.2102 22.3895 11.8286 22.3895 11.362V9.66546C22.3895 8.0452 21.2441 6.68778 19.7215 6.35284C19.0342 6.83601 18.1987 7.12036 17.2994 7.12036C16.3958 7.12036 15.5603 6.83602 14.8733 6.35254C13.3504 6.68747 12.2095 8.04498 12.2095 9.66515V11.3617C12.2095 11.8286 12.587 12.2102 13.0577 12.2102H13.0578Z" fill="#10A242"/>
<path d="M19.8447 2.87818C19.8447 4.28362 18.7053 5.42305 17.2996 5.42305C15.8938 5.42305 14.7544 4.28362 14.7544 2.87818C14.7544 1.47243 15.8938 0.333008 17.2996 0.333008C18.7053 0.333008 19.8447 1.47243 19.8447 2.87818Z" fill="#10A242"/>
<path d="M32.1455 24.9348C32.1455 26.3403 31.006 27.4797 29.6003 27.4797C28.1948 27.4797 27.0554 26.3403 27.0554 24.9348C27.0554 23.5291 28.1948 22.3896 29.6003 22.3896C31.006 22.3896 32.1455 23.5291 32.1455 24.9348Z" fill="#10A242"/>
<path d="M7.96821 24.9348C7.96821 26.3403 6.82878 27.4797 5.42304 27.4797C4.0176 27.4797 2.87817 26.3403 2.87817 24.9348C2.87817 23.5291 4.0176 22.3896 5.42304 22.3896C6.82878 22.3896 7.96821 23.5291 7.96821 24.9348" fill="#10A242"/>
</svg>
